<?xml version="1.0" standalone="no"?>
<!DOCTYPE svg PUBLIC "-//W3C//DTD SVG 20010904//EN"
 "http://www.w3.org/TR/2001/REC-SVG-20010904/DTD/svg10.dtd">
<svg version="1.0" xmlns="http://www.w3.org/2000/svg"
 width="400.000000pt" height="400.000000pt" viewBox="0 0 400.000000 400.000000"
 preserveAspectRatio="xMidYMid meet">
<metadata>
Created by potrace 1.14, written by Peter Selinger 2001-2017
</metadata>
<g transform="translate(0.000000,400.000000) scale(0.100000,-0.100000)"
fill="#000000" stroke="none">
<path d="M1917 3954 c-1 -1 -47 -5 -101 -8 -54 -4 -102 -8 -105 -10 -3 -2 -22
-7 -41 -10 -74 -12 -98 -18 -186 -41 -448 -118 -865 -424 -1128 -828 -119
-182 -232 -450 -270 -637 -2 -14 -10 -50 -16 -80 -19 -96 -25 -181 -25 -350 0
-149 9 -290 20 -323 2 -6 6 -28 9 -47 3 -19 16 -78 30 -130 101 -387 340 -766
636 -1006 19 -16 37 -31 40 -34 3 -3 30 -23 60 -46 220 -162 482 -281 750
-338 161 -34 226 -40 410 -40 193 -1 298 10 445 44 28 6 57 13 66 15 9 2 66
20 125 40 188 62 399 175 564 299 192 144 395 374 509 577 31 54 104 200 106
209 0 3 15 41 32 85 27 69 58 165 68 215 2 8 8 36 14 62 27 119 42 264 43 413
0 88 -2 174 -5 190 -3 17 -9 55 -12 85 -50 428 -291 883 -630 1187 -317 285
-677 446 -1112 499 -48 5 -291 13 -296 8z"/>
</g>
</svg>
