<?xml version="1.0" standalone="no"?>
<!DOCTYPE svg PUBLIC "-//W3C//DTD SVG 20010904//EN"
 "http://www.w3.org/TR/2001/REC-SVG-20010904/DTD/svg10.dtd">
<svg version="1.0" xmlns="http://www.w3.org/2000/svg"
 width="401.000000pt" height="401.000000pt" viewBox="0 0 401.000000 401.000000"
 preserveAspectRatio="xMidYMid meet">
<metadata>
Created by potrace 1.14, written by Peter Selinger 2001-2017
</metadata>
<g transform="translate(0.000000,401.000000) scale(0.100000,-0.100000)"
fill="#000000" stroke="none">
<path d="M1839 3986 c-2 -2 -31 -6 -64 -9 -65 -7 -167 -23 -193 -31 -10 -3
-28 -7 -42 -10 -53 -10 -199 -57 -281 -90 -96 -38 -252 -116 -257 -128 -2 -5
-8 -8 -14 -8 -6 0 -38 -19 -72 -41 -260 -176 -462 -385 -619 -639 -85 -139
-205 -420 -222 -524 -3 -17 -8 -39 -11 -48 -12 -39 -32 -148 -41 -220 -16
-128 -9 -461 12 -568 3 -14 9 -50 15 -80 6 -30 17 -80 26 -110 19 -68 20 -72
26 -90 3 -8 18 -51 34 -95 60 -171 188 -396 317 -555 92 -113 266 -282 350
-339 12 -8 24 -18 27 -21 15 -19 229 -144 320 -187 161 -77 390 -149 535 -168
22 -3 65 -8 95 -12 127 -18 446 -8 569 17 25 5 57 12 71 14 79 15 144 34 255
73 544 193 974 612 1190 1158 4 11 9 25 11 30 2 6 15 44 29 85 30 86 71 277
84 395 9 79 6 387 -4 455 -12 83 -16 104 -36 196 -122 566 -513 1067 -1044
1339 -167 86 -424 170 -585 192 -19 2 -46 7 -60 9 -29 6 -416 15 -421 10z"/>
</g>
</svg>
