<?xml version="1.0" encoding="utf-8"?>
<!-- Generator: Adobe Illustrator 26.5.0, SVG Export Plug-In . SVG Version: 6.00 Build 0)  -->
<!DOCTYPE svg PUBLIC "-//W3C//DTD SVG 1.1//EN" "http://www.w3.org/Graphics/SVG/1.1/DTD/svg11.dtd" [
	<!ENTITY st0 "fill:#5BCC15;">
]>
<svg version="1.1" id="Layer_1" xmlns="http://www.w3.org/2000/svg" xmlns:xlink="http://www.w3.org/1999/xlink" x="0px" y="0px"
	 viewBox="0 0 45 45" style="enable-background:new 0 0 45 45;" xml:space="preserve">
<path style="&st0;" d="M22.531,44.46C10.405,44.46,0.54,34.595,0.54,22.47c0-6.251,2.684-12.23,7.367-16.407
	c0.222-0.142,0.66-0.362,1.234-0.362c0.337,0,0.679,0.077,1.016,0.228c1.35,0.606,1.293,2.022,1.29,2.082l-0.001,0.017l0.001,0.019
	c0.001,0.033,0.015,0.877-0.684,1.576C7.168,12.911,5.1,17.598,5.1,22.47c0,9.612,7.82,17.431,17.431,17.431
	s17.431-7.82,17.431-17.431S32.143,5.038,22.531,5.038c-1.439,0-2.87,0.177-4.255,0.526l-0.29,0.073v26.19h3.594
	c2.604,0,4.815-0.891,6.574-2.649c1.758-1.759,2.649-3.97,2.649-6.574c0-2.578-0.898-4.783-2.669-6.554
	c-1.771-1.771-3.976-2.669-6.554-2.669c-0.691,0-1.23-0.208-1.648-0.637c-0.42-0.431-0.625-0.979-0.625-1.675
	c0-0.694,0.203-1.234,0.621-1.651C20.347,9,20.887,8.797,21.581,8.797c3.866,0,7.169,1.343,9.817,3.99
	c2.648,2.648,3.99,5.951,3.99,9.817c0,3.866-1.342,7.169-3.99,9.817c-2.648,2.648-5.951,3.99-9.817,3.99h-5.906
	c-0.613,0-1.134-0.222-1.592-0.68c-0.458-0.458-0.68-0.979-0.68-1.592v-30L13.39,4.062c0-0.078,0.004-0.4,0.099-0.761l0.005-0.02
	c0.07-0.258,0.169-0.476,0.296-0.651c0.011-0.015,0.306-0.444,0.821-0.688c1.181-0.546,3.778-1.463,7.86-1.463l0.059,0
	C34.656,0.505,44.522,10.37,44.522,22.47C44.522,34.595,34.657,44.46,22.531,44.46z"/>
</svg>
