<?xml version="1.0" standalone="no"?>
<!DOCTYPE svg PUBLIC "-//W3C//DTD SVG 20010904//EN"
 "http://www.w3.org/TR/2001/REC-SVG-20010904/DTD/svg10.dtd">
<svg version="1.0" xmlns="http://www.w3.org/2000/svg"
 width="501.000000pt" height="501.000000pt" viewBox="0 0 501.000000 501.000000"
 preserveAspectRatio="xMidYMid meet">
<metadata>
Created by potrace 1.14, written by Peter Selinger 2001-2017
</metadata>
<g transform="translate(0.000000,501.000000) scale(0.100000,-0.100000)"
fill="#000000" stroke="none">
<path d="M2427 4994 c-1 -1 -47 -5 -102 -8 -109 -8 -128 -10 -256 -31 -573
-95 -1132 -424 -1497 -880 -40 -49 -77 -95 -82 -102 -69 -85 -245 -398 -294
-523 -56 -144 -110 -317 -131 -425 -43 -223 -50 -291 -50 -530 0 -329 35 -541
137 -835 41 -117 159 -369 203 -435 14 -20 25 -38 25 -41 0 -6 73 -117 81
-124 4 -3 18 -22 32 -43 53 -78 144 -184 252 -292 106 -105 115 -113 287 -248
12 -11 33 -24 45 -30 13 -5 23 -14 23 -19 0 -4 6 -8 14 -8 8 0 16 -4 18 -8 5
-15 190 -119 310 -176 179 -85 410 -161 573 -190 17 -3 41 -8 55 -11 117 -23
215 -30 430 -30 209 0 280 5 430 31 708 123 1329 549 1705 1169 49 82 155 287
155 302 0 4 7 22 16 38 35 68 122 354 140 465 3 14 9 48 14 75 5 28 12 74 15
103 3 28 8 75 11 103 7 62 7 347 0 409 -3 25 -8 72 -11 105 -11 98 -44 260
-80 384 -144 501 -437 936 -858 1274 -164 132 -380 257 -608 351 -83 34 -291
101 -339 110 -14 2 -45 9 -70 15 -80 18 -233 39 -333 46 -89 7 -256 12 -260 9z"/>
</g>
</svg>
